{"title":"Hesher (2010) DvdRip [Xvid] {1337x}-X.avi","uid":6575295,"size":732497920,"categoryP":"video","categoryS":"movies","magnet":"?xt=urn:btih:9b07b7acebfa997308b9596fb2a7b98aa52cfb3a&amp;dn=Hesher+%282010%29+DvdRip+%5BXvid%5D+%7B1337x%7D-X.avi&amp;tr=udp%3A%2F%2Ftracker.openbittorrent.com%3A80&amp;tr=udp%3A%2F%2Fopen.demonii.com%3A1337&amp;tr=udp%3A%2F%2Ftracker.coppersurfer.tk%3A6969&amp;tr=udp%3A%2F%2Fexodus.desync.com%3A6969","seeders":0,"leechers":1,"uploader":"hiest","files":-1,"time":1312174886,"description":"##     ## ##     ##  ######  ########    ###    ##    ##  ######   ##     ## \n###   ### ##     ## ##    ##    ##      ## ##   ###   ## ##    ##   ##   ##  \n#### #### ##     ## ##          ##     ##   ##  ####  ## ##          ## ##   \n## ### ## ##     ##  ######     ##    ##     ## ## ## ## ##   ####    ###    \n##     ## ##     ##       ##    ##    ######### ##  #### ##    ##    ## ##   \n##     ## ##     ## ##    ##    ##    ##     ## ##   ### ##    ##   ##   ##  \n##     ##  #######   ######     ##    ##     ## ##    ##  ######   ##     ## \n\n Video\n ID : 0\n Format : MPEG-4 Visual\n Format profile : Advanced Simple@L5\n Format settings, BVOP : Yes\n Format settings, QPel : No\n Format settings, GMC : No warppoints\n Format settings, Matrix : Default (H.263)\n Muxing mode : Packed bitstream\n Codec ID : XVID\n Codec ID/Hint : XviD\n Duration : 1h 41mn\n Bit rate : 850 Kbps\n Width : 640 pixels\n Height : 352 pixels\n Display aspect ratio : 16:9\n Frame rate : 25.000 fps\n Color space : YUV\n Chroma subsampling : 4:2:0\n Bit depth : 8 bits\n Scan type : Progressive\n Bits/(Pixel*Frame) : 0.151\n Stream size : 617 MiB (88%)\n Writing library : XviD 57\n\n Audio\n ID : 1\n Format : MPEG Audio\n Format version : Version 1\n Format profile : Layer 3\n Mode : Joint stereo\n Mode extension : MS Stereo\n Codec ID : 55\n Codec ID/Hint : MP3\n Duration : 1h 41mn\n Bit rate mode : Variable\n Bit rate : 100 Kbps\n Nominal bit rate : 112 Kbps\n Channel(s) : 2 channels\n Sampling rate : 48.0 KHz\n Stream size : 72.7 MiB (10%)\n Alignment : Aligned on interleaves\n Interleave, duration : 24 ms (0.60 video frame)\n Interleave, preload duration : 183 ms\n Writing library : LAME3.97 \n Encoding settings : -m j -V 4 -q 2 -lowpass 16 --abr 112\n\n IMDB\n &lt;a href=&quot; http://www.imdb.com/title/tt1403177/&quot; rel=&quot;nofollow&quot; target=&quot;_NEW&quot;&gt; http://www.imdb.com/title/tt1403177/&lt;/a&gt;\n\n Shout out to noir and all my friends @ 1337x.org\n\n Testing new tracker, do not copy url of this one please, the dns will be set to  \n ip properly after test. and we will announce the tracker being ready.\n\n\n Screens:\n\n &lt;a href=&quot; http://leetleech.org/images/27687586962564292967.jpg&quot; rel=&quot;nofollow&quot; target=&quot;_NEW&quot;&gt; http://leetleech.org/images/27687586962564292967.jpg&lt;/a&gt;\n\n\n##     ## ##     ##  ######  ########    ###    ##    ##  ######   ##     ## \n###   ### ##     ## ##    ##    ##      ## ##   ###   ## ##    ##   ##   ##  \n#### #### ##     ## ##          ##     ##   ##  ####  ## ##          ## ##   \n## ### ## ##     ##  ######     ##    ##     ## ## ## ## ##   ####    ###    \n##     ## ##     ##       ##    ##    ######### ##  #### ##    ##    ## ##   \n##     ## ##     ## ##    ##    ##    ##     ## ##   ### ##    ##   ##   ##  \n##     ##  #######   ######     ##    ##     ## ##    ##  ######   ##     ## ","torrent":{"xt":"urn:btih:9b07b7acebfa997308b9596fb2a7b98aa52cfb3a","amp;dn":"Hesher+%282010%29+DvdRip+%5BXvid%5D+%7B1337x%7D-X.avi","amp;tr":["udp%3A%2F%2Ftracker.openbittorrent.com%3A80","udp%3A%2F%2Fopen.demonii.com%3A1337","udp%3A%2F%2Ftracker.coppersurfer.tk%3A6969","udp%3A%2F%2Fexodus.desync.com%3A6969"],"infoHash":"9b07b7acebfa997308b9596fb2a7b98aa52cfb3a","infoHashBuffer":{"type":"Buffer","data":[155,7,183,172,235,250,153,115,8,185,89,111,178,167,185,138,165,44,251,58]},"announce":[],"urlList":[]}}